<svg width="34" height="34" viewBox="0 0 34 34" fill="none" xmlns="http://www.w3.org/2000/svg">
<path d="M33.0003 1V21.5055H22.9346V8.54873C22.9346 6.54669 23.995 4.62661 25.8827 3.21095C27.7704 1.79529 30.3307 1 33.0003 1Z" stroke="black" stroke-width="2" stroke-linecap="round" stroke-linejoin="round"/>
<path d="M27.1406 21.3928H32.9998V30.8569C32.9998 31.4246 32.699 31.9691 32.1637 32.3706C31.6284 32.772 30.9024 32.9976 30.1453 32.9976H29.9951C29.2381 32.9976 28.512 32.772 27.9767 32.3706C27.4414 31.9691 27.1406 31.4246 27.1406 30.8569V21.3928Z" fill="url(#paint0_linear_882_3578)" stroke="black" stroke-width="2" stroke-linecap="round" stroke-linejoin="round"/>
<path d="M7.91046 32.9976C6.99403 32.9976 6.11514 32.7246 5.46713 32.2387C4.81911 31.7527 4.45508 31.0936 4.45508 30.4063L5.95742 16.3229H10.0137L11.5161 30.4063C11.5165 30.7563 11.4224 31.1027 11.2395 31.4247C11.0565 31.7467 10.7884 32.0375 10.4515 32.2797C10.1145 32.5218 9.7157 32.7103 9.27897 32.8337C8.84225 32.9571 8.37671 33.0129 7.91046 32.9976Z" fill="url(#paint1_linear_882_3578)" stroke="black" stroke-width="2" stroke-linecap="round" stroke-linejoin="round"/>
<path d="M14.6714 11.2528C14.4277 12.4818 13.6035 13.6043 12.3488 14.4157C11.0941 15.2271 9.49248 15.6734 7.8357 15.6734C6.17892 15.6734 4.57726 15.2271 3.32257 14.4157C2.06787 13.6043 1.24361 12.4818 1 11.2528H14.6714Z" stroke="black" stroke-width="2" stroke-linecap="round" stroke-linejoin="round"/>
<path d="M1 1.90137V11.2528" stroke="black" stroke-width="2" stroke-linecap="round" stroke-linejoin="round"/>
<path d="M7.76074 1.90137V11.0274" stroke="black" stroke-width="2" stroke-linecap="round" stroke-linejoin="round"/>
<path d="M14.6714 1.90137V11.2528" stroke="black" stroke-width="2" stroke-linecap="round" stroke-linejoin="round"/>
<defs>
<linearGradient id="paint0_linear_882_3578" x1="27.161" y1="23.1977" x2="35.6413" y2="26.8171" gradientUnits="userSpaceOnUse">
<stop stop-color="#FFA654"/>
<stop offset="1" stop-color="#F26702"/>
</linearGradient>
<linearGradient id="paint1_linear_882_3578" x1="4.47963" y1="18.9166" x2="15.1892" y2="22.7496" gradientUnits="userSpaceOnUse">
<stop stop-color="#FFA654"/>
<stop offset="1" stop-color="#F26702"/>
</linearGradient>
</defs>
</svg>
