<svg width="55" height="55" viewBox="0 0 55 55" fill="none" xmlns="http://www.w3.org/2000/svg">
<g clip-path="url(#clip0_117_4581)">
<path d="M43.5423 50.4167H11.459C9.63562 50.4167 7.88694 49.6924 6.59763 48.4031C5.30831 47.1138 4.58398 45.3651 4.58398 43.5417V6.87504C4.58398 6.26725 4.82543 5.68436 5.2552 5.25459C5.68497 4.82482 6.26786 4.58337 6.87565 4.58337H38.959C39.5668 4.58337 40.1497 4.82482 40.5794 5.25459C41.0092 5.68436 41.2507 6.26725 41.2507 6.87504V34.375H50.4173V43.5417C50.4173 45.3651 49.693 47.1138 48.4037 48.4031C47.1144 49.6924 45.3657 50.4167 43.5423 50.4167ZM41.2507 38.9584V43.5417C41.2507 44.1495 41.4921 44.7324 41.9219 45.1622C42.3516 45.5919 42.9345 45.8334 43.5423 45.8334C44.1501 45.8334 44.733 45.5919 45.1628 45.1622C45.5925 44.7324 45.834 44.1495 45.834 43.5417V38.9584H41.2507ZM36.6673 45.8334V9.16671H9.16732V43.5417C9.16732 44.1495 9.40876 44.7324 9.83853 45.1622C10.2683 45.5919 10.8512 45.8334 11.459 45.8334H36.6673ZM13.7507 16.0417H32.084V20.625H13.7507V16.0417ZM13.7507 25.2084H32.084V29.7917H13.7507V25.2084ZM13.7507 34.375H25.209V38.9584H13.7507V34.375Z" fill="#A6A6A6"/>
</g>
<defs>
<clipPath id="clip0_117_4581">
<rect width="55" height="55" fill="white"/>
</clipPath>
</defs>
</svg>
