<svg width="168" height="48" viewBox="0 0 168 48" fill="none" xmlns="http://www.w3.org/2000/svg">
<path d="M161.778 48H6.22222C2.80156 48 0 45.2985 0 42V6C0 2.7015 2.80156 -1.90735e-06 6.22222 -1.90735e-06H161.778C165.198 -1.90735e-06 168 2.7015 168 6V42C168 45.2985 165.198 48 161.778 48Z" fill="#3C5C6D"/>
<path d="M161.778 0.961497C164.659 0.961497 167.003 3.222 167.003 6V42C167.003 44.778 164.659 47.0385 161.778 47.0385H6.22222C3.34133 47.0385 0.997111 44.778 0.997111 42V6C0.997111 3.222 3.34133 0.961497 6.22222 0.961497H161.778ZM161.778 -1.90735e-06H6.22222C2.80156 -1.90735e-06 0 2.7015 0 6V42C0 45.2985 2.80156 48 6.22222 48H161.778C165.198 48 168 45.2985 168 42V6C168 2.7015 165.198 -1.90735e-06 161.778 -1.90735e-06Z" fill="#A6A6A6"/>
<path d="M12.0527 9.04646C11.6871 9.41546 11.4756 9.98996 11.4756 10.734V37.272C11.4756 38.016 11.6871 38.5905 12.0527 38.9595L12.1429 39.0405L27.5647 24.1755V23.8245L12.1429 8.95946L12.0527 9.04646Z" fill="white"/>
<path d="M34.566 29.133L29.4312 24.1755V23.8245L34.5723 18.867L34.6874 18.9315L40.7758 22.272C42.5134 23.22 42.5134 24.78 40.7758 25.734L34.6874 29.0685L34.566 29.133Z" fill="white"/>
<path d="M33.7541 29.9916L28.4978 24.9231L12.9858 39.8826C13.563 40.4676 14.5041 40.5381 15.5743 39.9531L33.7541 29.9916Z" fill="white"/>
<path d="M33.7541 18.0084L15.5743 8.04691C14.5041 7.46791 13.563 7.5384 12.9858 8.1234L28.4978 23.0769L33.7541 18.0084Z" fill="white"/>
<path d="M59.0085 12.2925C59.0085 13.2945 58.6974 14.097 58.0845 14.6955C57.3798 15.405 56.4621 15.762 55.3374 15.762C54.2625 15.762 53.3447 15.399 52.5918 14.6835C51.8374 13.9575 51.4609 13.0665 51.4609 12C51.4609 10.9335 51.8374 10.0425 52.5918 9.32251C53.3447 8.60101 54.2625 8.23801 55.3374 8.23801C55.8725 8.23801 56.3827 8.34451 56.8696 8.54251C57.3549 8.74201 57.75 9.01201 58.0363 9.34501L57.386 9.97801C56.8867 9.40951 56.2069 9.12901 55.3374 9.12901C54.5534 9.12901 53.8736 9.39301 53.2965 9.92551C52.7256 10.4595 52.4394 11.151 52.4394 12C52.4394 12.849 52.7256 13.5465 53.2965 14.0805C53.8736 14.607 54.5534 14.877 55.3374 14.877C56.1696 14.877 56.8696 14.607 57.4218 14.0745C57.7858 13.722 57.9927 13.236 58.0472 12.615H55.3374V11.748H58.9525C58.996 11.9355 59.0085 12.117 59.0085 12.2925Z" fill="white" stroke="white" stroke-width="0.16" stroke-miterlimit="10"/>
<path d="M64.7438 9.28648H61.3481V11.5665H64.4094V12.4335H61.3481V14.7135H64.7438V15.597H60.3867V8.40298H64.7438V9.28648Z" fill="white" stroke="white" stroke-width="0.16" stroke-miterlimit="10"/>
<path d="M68.7913 15.597H67.83V9.28648H65.7471V8.40298H70.8757V9.28648H68.7913V15.597Z" fill="white" stroke="white" stroke-width="0.16" stroke-miterlimit="10"/>
<path d="M74.5874 15.597V8.40298H75.5472V15.597H74.5874Z" fill="white" stroke="white" stroke-width="0.16" stroke-miterlimit="10"/>
<path d="M79.8015 15.597H78.848V9.28648H76.7573V8.40298H81.8922V9.28648H79.8015V15.597Z" fill="white" stroke="white" stroke-width="0.16" stroke-miterlimit="10"/>
<path d="M91.6022 14.6715C90.8664 15.399 89.9549 15.762 88.8675 15.762C87.774 15.762 86.8624 15.399 86.1266 14.6715C85.3924 13.9455 85.0269 13.0545 85.0269 12C85.0269 10.9455 85.3924 10.0545 86.1266 9.32851C86.8624 8.60101 87.774 8.23801 88.8675 8.23801C89.9486 8.23801 90.8602 8.60101 91.596 9.33451C92.3364 10.0665 92.702 10.9515 92.702 12C92.702 13.0545 92.3364 13.9455 91.6022 14.6715ZM86.8375 14.0685C87.3913 14.607 88.0649 14.877 88.8675 14.877C89.664 14.877 90.3437 14.607 90.8913 14.0685C91.4435 13.53 91.7235 12.8385 91.7235 12C91.7235 11.1615 91.4435 10.47 90.8913 9.93151C90.3437 9.39301 89.664 9.12301 88.8675 9.12301C88.0649 9.12301 87.3913 9.39301 86.8375 9.93151C86.2853 10.47 86.0053 11.1615 86.0053 12C86.0053 12.8385 86.2853 13.53 86.8375 14.0685Z" fill="white" stroke="white" stroke-width="0.16" stroke-miterlimit="10"/>
<path d="M94.0503 15.597V8.40298H95.217L98.8445 13.998H98.8865L98.8445 12.615V8.40298H99.8043V15.597H98.8025L95.0038 9.72598H94.9618L95.0038 11.115V15.597H94.0503Z" fill="white" stroke="white" stroke-width="0.16" stroke-miterlimit="10"/>
<path d="M84.79 26.103C81.8671 26.103 79.4793 28.248 79.4793 31.2075C79.4793 34.143 81.8671 36.3105 84.79 36.3105C87.7191 36.3105 90.1069 34.143 90.1069 31.2075C90.1069 28.248 87.7191 26.103 84.79 26.103ZM84.79 34.3005C83.1862 34.3005 81.8064 33.024 81.8064 31.2075C81.8064 29.367 83.1862 28.113 84.79 28.113C86.3938 28.113 87.7798 29.367 87.7798 31.2075C87.7798 33.024 86.3938 34.3005 84.79 34.3005ZM73.2027 26.103C70.2735 26.103 67.892 28.248 67.892 31.2075C67.892 34.143 70.2735 36.3105 73.2027 36.3105C76.1302 36.3105 78.5133 34.143 78.5133 31.2075C78.5133 28.248 76.1302 26.103 73.2027 26.103ZM73.2027 34.3005C71.5973 34.3005 70.2129 33.024 70.2129 31.2075C70.2129 29.367 71.5973 28.113 73.2027 28.113C74.8064 28.113 76.1862 29.367 76.1862 31.2075C76.1862 33.024 74.8064 34.3005 73.2027 34.3005ZM59.4142 27.6675V29.8365H64.7855C64.6284 31.0485 64.2084 31.9395 63.5644 32.5605C62.7804 33.3105 61.5593 34.143 59.4142 34.143C56.1087 34.143 53.5202 31.5705 53.5202 28.383C53.5202 25.1955 56.1087 22.623 59.4142 22.623C61.2015 22.623 62.502 23.2965 63.4618 24.1695L65.0469 22.641C63.7044 21.405 61.9187 20.4555 59.4142 20.4555C54.8813 20.4555 51.0718 24.012 51.0718 28.383C51.0718 32.754 54.8813 36.3105 59.4142 36.3105C61.8642 36.3105 63.7044 35.5365 65.1511 34.0845C66.6335 32.655 67.0955 30.645 67.0955 29.022C67.0955 28.518 67.052 28.0545 66.9742 27.6675H59.4142ZM115.797 29.349C115.36 28.2075 114.011 26.103 111.264 26.103C108.542 26.103 106.275 28.1715 106.275 31.2075C106.275 34.0665 108.518 36.3105 111.525 36.3105C113.957 36.3105 115.36 34.881 115.937 34.0485L114.132 32.889C113.53 33.738 112.711 34.3005 111.525 34.3005C110.348 34.3005 109.503 33.78 108.962 32.754L116.041 29.9295L115.797 29.349ZM108.579 31.0485C108.518 29.0805 110.164 28.0725 111.343 28.0725C112.267 28.0725 113.051 28.518 113.313 29.1555L108.579 31.0485ZM102.825 36H105.152V21H102.825V36ZM99.014 27.24H98.9362C98.4135 26.643 97.4164 26.103 96.1533 26.103C93.5027 26.103 91.0791 28.347 91.0791 31.224C91.0791 34.0845 93.5027 36.3105 96.1533 36.3105C97.4164 36.3105 98.4135 35.766 98.9362 35.151H99.014V35.883C99.014 37.8345 97.9329 38.883 96.1891 38.883C94.7673 38.883 93.8853 37.893 93.5213 37.0605L91.4975 37.875C92.0809 39.228 93.6255 40.893 96.1891 40.893C98.9175 40.893 101.22 39.345 101.22 35.5785V26.4135H99.014V27.24ZM96.3524 34.3005C94.7487 34.3005 93.4062 33.006 93.4062 31.224C93.4062 29.4255 94.7487 28.113 96.3524 28.113C97.9329 28.113 99.1789 29.4255 99.1789 31.224C99.1789 33.006 97.9329 34.3005 96.3524 34.3005ZM126.692 21H121.126V36H123.447V30.3165H126.692C129.27 30.3165 131.797 28.518 131.797 25.6575C131.797 22.7985 129.263 21 126.692 21ZM126.753 28.23H123.447V23.0865H126.753C128.486 23.0865 129.475 24.474 129.475 25.6575C129.475 26.8185 128.486 28.23 126.753 28.23ZM141.1 26.0745C139.423 26.0745 137.679 26.7885 136.962 28.371L139.021 29.2035C139.465 28.371 140.28 28.101 141.142 28.101C142.346 28.101 143.567 28.7985 143.585 30.03V30.1875C143.165 29.9535 142.266 29.607 141.16 29.607C138.942 29.607 136.682 30.7845 136.682 32.982C136.682 34.992 138.499 36.2865 140.541 36.2865C142.103 36.2865 142.965 35.607 143.506 34.8165H143.585V35.976H145.827V30.222C145.827 27.5625 143.767 26.0745 141.1 26.0745ZM140.82 34.2945C140.06 34.2945 139.003 33.9315 139.003 33.024C139.003 31.863 140.322 31.4175 141.464 31.4175C142.486 31.4175 142.965 31.635 143.585 31.9215C143.403 33.3105 142.164 34.2945 140.82 34.2945ZM153.994 26.403L151.326 32.9055H151.246L148.488 26.403H145.986L150.13 35.49L147.765 40.5465H150.19L156.576 26.403H153.994ZM133.073 36H135.4V21H133.073V36Z" fill="white"/>
</svg>
