<svg width="32" height="32" viewBox="0 0 32 32" fill="none" xmlns="http://www.w3.org/2000/svg">
<path opacity="0.4" d="M29.3332 18.6666V22.6666C29.3332 24.88 27.5465 26.6666 25.3332 26.6666H23.9998C23.9998 25.2 22.7998 24 21.3332 24C19.8665 24 18.6665 25.2 18.6665 26.6666H13.3332C13.3332 25.2 12.1332 24 10.6665 24C9.19984 24 7.99984 25.2 7.99984 26.6666H6.6665C4.45317 26.6666 2.6665 24.88 2.6665 22.6666V18.6666H17.3332C18.7998 18.6666 19.9998 17.4666 19.9998 16V6.66663H22.4532C23.4132 6.66663 24.2932 7.18664 24.7732 8.01331L27.0531 12H25.3332C24.5998 12 23.9998 12.6 23.9998 13.3333V17.3333C23.9998 18.0666 24.5998 18.6666 25.3332 18.6666H29.3332Z" fill="#A027FF"/>
<path d="M10.6667 29.3333C12.1394 29.3333 13.3333 28.1394 13.3333 26.6667C13.3333 25.1939 12.1394 24 10.6667 24C9.19391 24 8 25.1939 8 26.6667C8 28.1394 9.19391 29.3333 10.6667 29.3333Z" fill="#A027FF"/>
<path d="M21.3332 29.3333C22.8059 29.3333 23.9998 28.1394 23.9998 26.6667C23.9998 25.1939 22.8059 24 21.3332 24C19.8604 24 18.6665 25.1939 18.6665 26.6667C18.6665 28.1394 19.8604 29.3333 21.3332 29.3333Z" fill="#A027FF"/>
<path d="M29.3333 16.7067V18.6667H25.3333C24.6 18.6667 24 18.0667 24 17.3333V13.3333C24 12.6 24.6 12 25.3333 12H27.0533L28.9867 15.3866C29.2133 15.7866 29.3333 16.24 29.3333 16.7067Z" fill="#A027FF"/>
<path d="M18.667 2.66663H8.00033C5.40033 2.66663 3.24035 4.53329 2.77368 6.99996H9.33366C9.88033 6.99996 10.3337 7.45329 10.3337 7.99996C10.3337 8.54663 9.88033 8.99996 9.33366 8.99996H2.66699V11H6.66699C7.21366 11 7.66699 11.4533 7.66699 12C7.66699 12.5466 7.21366 13 6.66699 13H2.66699V15H4.00033C4.54699 15 5.00033 15.4533 5.00033 16C5.00033 16.5466 4.54699 17 4.00033 17H2.66699V18.6666H17.3337C18.8003 18.6666 20.0003 17.4666 20.0003 16V3.99996C20.0003 3.26663 19.4003 2.66663 18.667 2.66663Z" fill="#A027FF"/>
<path d="M2.77352 7H1.3335C0.786829 7 0.333496 7.45333 0.333496 8C0.333496 8.54667 0.786829 9 1.3335 9H2.66683V8C2.66683 7.65333 2.70685 7.32 2.77352 7Z" fill="#A027FF"/>
<path d="M1.3335 11C0.786829 11 0.333496 11.4533 0.333496 12C0.333496 12.5467 0.786829 13 1.3335 13H2.66683V11H1.3335Z" fill="#A027FF"/>
<path d="M1.3335 15C0.786829 15 0.333496 15.4533 0.333496 16C0.333496 16.5467 0.786829 17 1.3335 17H2.66683V15H1.3335Z" fill="#A027FF"/>
</svg>
