<svg width="55" height="55" viewBox="0 0 55 55" fill="none" xmlns="http://www.w3.org/2000/svg">
<path d="M27.4987 4.58337C31.1454 4.58337 34.6428 6.03203 37.2214 8.61066C39.8 11.1893 41.2487 14.6866 41.2487 18.3334V20.625H50.4154V25.2084H47.741L46.0062 46.0236C45.9585 46.5962 45.6974 47.1301 45.2747 47.5193C44.8519 47.9085 44.2983 48.1247 43.7237 48.125H11.2737C10.6991 48.1247 10.1455 47.9085 9.72275 47.5193C9.29999 47.1301 9.03889 46.5962 8.9912 46.0236L7.25411 25.2084H4.58203V20.625H13.7487V18.3334C13.7487 14.6866 15.1974 11.1893 17.776 8.61066C20.3546 6.03203 23.852 4.58337 27.4987 4.58337ZM29.7904 29.7917H25.207V38.9584H29.7904V29.7917ZM20.6237 29.7917H16.0404V38.9584H20.6237V29.7917ZM38.957 29.7917H34.3737V38.9584H38.957V29.7917ZM27.4987 9.16671C25.1469 9.16671 22.885 10.0706 21.181 11.6915C19.477 13.3124 18.4611 15.5262 18.3435 17.875L18.332 18.3334V20.625H36.6654V18.3334C36.6654 15.9816 35.7615 13.7197 34.1406 12.0157C32.5197 10.3116 30.3059 9.29576 27.957 9.17817L27.4987 9.16671Z" fill="#A6A6A6"/>
</svg>
